:SAMPLES-PER-SECOND 30
:FRAME-RANGE 1-2775
:FULLY-SPECIFIED
:DEGREES
1908
root  -3.18149 40.0722 35.3871 -179.406 24.7999 -179.474
RightUpLeg  -4.14122 2.00983 -0.849323
RightLeg  8.1059 2.54598 -2.16899
RightFoot  -5.96433 -0.322652 6
RightToes  -5.28216e-011 1.2921e-014 -6.02303e-014
Spine  3.87016 1.00596 5.36633
Spine1  -1.28948 3.4099 -12.8875
HEad  3.79308 -22.182 -0.04718
LeftShoulder1  1.61028 -1.01125 -29.6021
LeftArm  7.52436 10.826 -22.4549
LeftForeArm  5.20952 -8.42356 -15.411
LeftHand  0.493502 -3.20691 -6.43359
RightShoulder  -1.77309 19.5115 -18.4709
RightArm  -74.4435 34.4066 -11.0973
RightForeArm  60.0743 27.643 2.93135
RightHand  -1.8503 5.07034 -20.6125
LeftUpLeg  -4.26302 7.31686 2.41747
LeftLeg  8.09886 -2.44835 -2.77452
LeftFoot  -4.70939 0.145012 -2.01434
LeftToes  -2.158e-010 -1.26819e-010 -1.05346e-011
1909
root  -3.22052 40.0922 35.3389 -179.338 24.7394 -179.453
RightUpLeg  -3.98022 -0.144504 -1.36492
RightLeg  7.58345 4.36165 -1.25939
RightFoot  -5.44998 -0.346935 6.01452
RightToes  -5.28216e-011 1.2921e-014 -6.02303e-014
Spine  3.79328 1.03191 5.08864
Spine1  -1.16285 3.34046 -12.3085
HEad  3.83042 -22.2805 -0.241223
LeftShoulder1  1.62772 -1.05766 -29.6226
LeftArm  8.84567 12.0544 -23.1825
LeftForeArm  4.21379 -9.43282 -14.9904
LeftHand  0.469259 -3.29431 -6.03838
RightShoulder  -1.63444 20.2729 -17.5214
RightArm  -78.947 34.1707 -10.9296
RightForeArm  44.3575 29.1729 3.94024
RightHand  -1.48614 5.08465 -16.6527
LeftUpLeg  -4.13224 7.23113 2.32138
LeftLeg  7.74369 -2.24889 -2.75934
LeftFoot  -4.49071 0.134647 -1.79857
LeftToes  -2.158e-010 -1.26819e-010 -1.05346e-011
1910
root  -3.21502 40.1341 35.3055 -179.172 24.6072 -179.293
RightUpLeg  -3.60573 -0.41317 -1.04254
RightLeg  6.66199 4.21961 -1.52405
RightFoot  -4.70309 -0.335542 5.22885
RightToes  -5.28216e-011 1.2921e-014 -6.02303e-014
Spine  3.50675 1.13596 5.16566
Spine1  -0.909257 3.41769 -12.0032
HEad  4.39694 -22.5903 -0.55805
LeftShoulder1  1.59592 -1.01901 -29.2167
LeftArm  9.3161 12.3685 -24.4151
LeftForeArm  4.21392 -9.35612 -15.0686
LeftHand  0.480879 -3.3734 -6.13142
RightShoulder  -1.42573 21.3441 -16.2209
RightArm  -83.9272 33.8656 -11.4935
RightForeArm  23.9564 30.9554 5.42977
RightHand  -0.917562 3.23717 -12.5466
LeftUpLeg  -3.91656 7.07602 2.39685
LeftLeg  7.1152 -2.26994 -2.63436
LeftFoot  -4.14042 0.136636 -1.7784
LeftToes  -2.158e-010 -1.26819e-010 -1.05346e-011
1911
root  -3.18145 40.1716 35.2803 -179.079 24.4394 -179.082
RightUpLeg  -3.05258 -0.524328 -0.667469
RightLeg  5.65099 3.92188 -1.8016
RightFoot  -4.07299 -0.343597 4.96888
RightToes  -5.28216e-011 1.2921e-014 -6.02303e-014
Spine  3.54369 1.44839 5.18916
Spine1  -0.980374 3.64297 -11.4884
HEad  4.71463 -23.1116 -0.589129
LeftShoulder1  1.57224 -0.977596 -29.01
LeftArm  9.22155 11.9615 -25.6007
LeftForeArm  5.09808 -8.69838 -15.3871
LeftHand  0.547838 -3.60158 -6.82121
RightShoulder  -1.41195 21.2316 -16.1878
RightArm  -83.967 33.3024 -11.7389
RightForeArm  9.39149 32.5099 6.65319
RightHand  -0.647581 2.48615 -9.7385
LeftUpLeg  -3.70267 6.90351 2.48794
LeftLeg  6.68232 -2.20412 -2.37403
LeftFoot  -3.86217 0.134546 -1.70324
LeftToes  -2.158e-010 -1.26819e-010 -1.05346e-011
1912
root  -3.15112 40.1987 35.2549 -179.045 24.0732 -178.866
RightUpLeg  -2.50798 -0.915584 -0.494611
RightLeg  4.8441 3.93271 -1.72829
RightFoot  -3.69918 -0.337401 4.67078
RightToes  -5.28216e-011 1.2921e-014 -6.02303e-014
Spine  3.60356 1.45753 5.39819
Spine1  -1.06742 3.61973 -11.2871
HEad  4.83754 -22.9451 -0.303365
LeftShoulder1  1.5504 -0.92506 -28.9307
LeftArm  9.28481 12 -26.3246
LeftForeArm  5.64642 -8.9193 -15.238
LeftHand  0.633229 -3.91064 -7.6343
RightShoulder  -1.43402 19.8116 -16.7
RightArm  -77.7242 33.5674 -11.3454
RightForeArm  20.2999 31.8217 5.84877
RightHand  -0.797467 4.17508 -9.92926
LeftUpLeg  -3.58249 6.73716 2.59921
LeftLeg  6.53078 -2.42395 -2.14707
LeftFoot  -3.69726 0.132749 -1.64947
LeftToes  -2.158e-010 -1.26819e-010 -1.05346e-011
1913
root  -3.11188 40.2059 35.2266 -179.062 23.475 -178.821
RightUpLeg  -2.13378 -1.21987 -0.498739
RightLeg  4.43319 3.58925 -1.63317
RightFoot  -3.56887 -0.343246 4.69124
RightToes  -5.28216e-011 1.2921e-014 -6.02303e-014
Spine  3.4895 1.17693 5.46483
Spine1  -0.964998 3.33996 -11.2646
HEad  4.91149 -22.539 0.188405
LeftShoulder1  1.55607 -0.920657 -29.0971
LeftArm  10.8058 12.4308 -26.5068
LeftForeArm  4.6357 -10.2296 -14.6301
LeftHand  0.673753 -4.02084 -8.03475
RightShoulder  -1.54341 18.6201 -17.648
RightArm  -71.1042 33.9312 -11.0484
RightForeArm  38.6136 30.491 4.52248
RightHand  -1.21604 5.46204 -13.256
LeftUpLeg  -3.6078 6.63601 2.61689
LeftLeg  6.61177 -2.901 -2.10054
LeftFoot  -3.6242 0.127423 -1.55056
LeftToes  -2.158e-010 -1.26819e-010 -1.05346e-011
1914
root  -3.0571 40.2113 35.2185 -179.156 22.9362 -178.975
RightUpLeg  -1.91214 -1.33523 -0.58852
RightLeg  4.31777 3.32706 -1.68008
RightFoot  -3.67968 -0.339269 4.6887
RightToes  -5.28216e-011 1.2921e-014 -6.02303e-014
Spine  3.15535 0.845141 5.48119
Spine1  -0.464243 3.08569 -11.5117
HEad  4.78924 -22.2912 0.604488
LeftShoulder1  1.57572 -0.954414 -29.2751
LeftArm  12.6902 12.7085 -26.6004
LeftForeArm  3.14119 -11.5334 -13.9868
LeftHand  0.652551 -4.02349 -7.77197
RightShoulder  -1.58868 18.4373 -17.9504
RightArm  -70.767 33.5541 -11.165
RightForeArm  54.0675 30.5198 3.78488
RightHand  -1.88861 6.62462 -18.4135
LeftUpLeg  -3.48204 6.44383 2.49314
LeftLeg  6.36085 -3.27258 -2.05806
LeftFoot  -3.41823 0.126599 -1.52162
LeftToes  -2.158e-010 -1.26819e-010 -1.05346e-011
1915
root  -2.99678 40.2268 35.2318 -179.233 22.5725 -179.067
RightUpLeg  -1.62205 -1.32772 -0.540353
RightLeg  3.94429 2.83802 -1.79842
RightFoot  -3.5358 -0.339201 4.61542
RightToes  -5.28216e-011 1.2921e-014 -6.02303e-014
Spine  3.13098 0.690495 5.40663
Spine1  -0.345209 2.93203 -11.4768
HEad  4.84003 -22.3772 0.497405
LeftShoulder1  1.61606 -1.02634 -29.6112
LeftArm  13.5538 12.7481 -26.7406
LeftForeArm  2.59771 -12.0914 -13.6804
LeftHand  0.598058 -4.0187 -7.10645
RightShoulder  -1.49327 18.435 -17.4557
RightArm  -73.8992 33.5234 -11.4808
RightForeArm  57.6173 30.636 3.659
RightHand  -1.80735 4.95793 -20.3598
LeftUpLeg  -3.2419 6.39909 2.49371
LeftLeg  5.89741 -3.50772 -2.06911
LeftFoot  -3.19845 0.135061 -1.62726
LeftToes  -2.158e-010 -1.26819e-010 -1.05346e-011
1916
root  -2.92431 40.2443 35.2763 -179.159 22.3023 -179.087
RightUpLeg  -1.50755 -1.59079 -0.549827
RightLeg  3.53273 2.78474 -1.55968
RightFoot  -3.25268 -0.323052 4.25264
RightToes  -5.28216e-011 1.2921e-014 -6.02303e-014
Spine  3.14669 0.625456 5.39513
Spine1  -0.402505 2.85159 -11.4056
HEad  5.16284 -22.6654 0.349106
LeftShoulder1  1.63948 -1.0599 -29.8666
LeftArm  13.3474 12.4385 -26.9713
LeftForeArm  2.73747 -12.0733 -13.6738
LeftHand  0.563826 -3.96475 -6.72787
RightShoulder  -1.2785 19.1361 -16.1296
RightArm  -79.4803 33.1813 -11.5913
RightForeArm  42.9976 31.9686 4.63587
RightHand  -1.41441 4.97188 -16.0385
LeftUpLeg  -3.16016 6.36036 2.5907
LeftLeg  5.43693 -3.83274 -2.05624
LeftFoot  -2.92151 0.143246 -1.7074
LeftToes  -2.158e-010 -1.26819e-010 -1.05346e-011
1917
root  -2.8509 40.2602 35.3418 -179.02 22.066 -179.111
RightUpLeg  -1.49482 -1.93708 -0.634589
RightLeg  3.13127 2.93032 -1.18878
RightFoot  -3.06059 -0.319173 4.11825
RightToes  -5.28216e-011 1.2921e-014 -6.02303e-014
Spine  3.24016 0.682618 5.40566
Spine1  -0.593213 2.8737 -11.2693
HEad  5.75014 -23.1367 -0.223274
LeftShoulder1  1.6399 -1.0713 -29.7851
LeftArm  12.2338 11.9087 -27.671
LeftForeArm  3.78688 -11.5256 -13.9256
LeftHand  0.563869 -4.03645 -6.67206
RightShoulder  -1.13099 20.0758 -15.1543
RightArm  -84.7581 32.7007 -12.01
RightForeArm  22.9887 33.7422 6.17609
RightHand  -0.846518 2.81018 -12.1731
LeftUpLeg  -3.21689 6.25838 2.64111
LeftLeg  5.03027 -3.95811 -1.95953
LeftFoot  -2.65646 0.155203 -1.83591
LeftToes  -2.158e-010 -1.26819e-010 -1.05346e-011
1918
root  -2.78461 40.27 35.4107 -178.947 21.7755 -179.173
RightUpLeg  -1.48053 -2.1599 -0.682951
RightLeg  2.81876 2.69072 -0.973464
RightFoot  -2.90127 -0.320789 4.12025
RightToes  -5.28216e-011 1.2921e-014 -6.02303e-014
Spine  3.45666 0.832951 5.39942
Spine1  -0.784276 2.97175 -10.9971
HEad  5.87045 -23.3854 -0.684941
LeftShoulder1  1.63547 -1.08438 -29.4874
LeftArm  11.7392 11.3362 -28.6839
LeftForeArm  4.40013 -11.2525 -14.0375
LeftHand  0.589073 -4.06224 -6.96061
RightShoulder  -1.1753 20.0887 -15.3655
RightArm  -85.5839 32.0187 -12.2901
RightForeArm  7.49832 35.4251 7.551
RightHand  -0.639699 2.04725 -10.1575
LeftUpLeg  -3.29381 6.11432 2.61794
LeftLeg  4.73818 -4.02659 -1.82876
LeftFoot  -2.48172 0.169396 -1.99413
LeftToes  -2.158e-010 -1.26819e-010 -1.05346e-011
1919
root  -2.73791 40.2783 35.4632 -178.862 21.136 -179.219
RightUpLeg  -1.39481 -2.33717 -0.720545
RightLeg  2.47362 2.28027 -0.848371
RightFoot  -2.77655 -0.31729 4.06486
RightToes  -5.28216e-011 1.2921e-014 -6.02303e-014
Spine  3.58631 0.756626 5.40959
Spine1  -0.960319 2.8165 -10.6055
HEad  5.74789 -23.0676 -0.960896
LeftShoulder1  1.63199 -1.10675 -29.3308
LeftArm  12.9461 11.3398 -29.3126
LeftForeArm  3.96016 -12.1591 -13.5064
LeftHand  0.629961 -4.30632 -7.25615
RightShoulder  -1.20807 18.6302 -15.9162
RightArm  -80.008 32.3548 -12.2024
RightForeArm  18.1552 35.2774 6.86872
RightHand  -0.746591 3.60956 -9.86452
LeftUpLeg  -3.44418 5.90866 2.59566
LeftLeg  4.54102 -4.57285 -1.75102
LeftFoot  -2.30528 0.1838 -2.15081
LeftToes  -2.158e-010 -1.26819e-010 -1.05346e-011
